<?xml version="1.0" encoding="UTF-8"?>
<svg version="1.1" viewBox="0 0 1868 1444" width="1280" height="1280" xmlns="http://www.w3.org/2000/svg">
<path transform="translate(393,240)" d="m0 0h10l9 2 10 7 6 10 10 22 7 8 8 3 15 3 7 4 6 10 2 8v11l-3 14-5 14-1 2 18-6 9-2 9-1h23l19 3 14 4 14 6 12 8 10 9 7 7 8 13 5 13 4 22 7 87v17l-3 21-5 17-7 15-6 11-9 12-11 12-10 9-13 8-17 8-8 3 4 3 40 19 22 11 17 10 21 14 13 10 10 8 13 11 16 16 11 15 8 16 9 25 12 37 15 52 9 33 1 2 4-1 60-90 9-10 7-10 10-15 6-5 2-1h11l5-4 8-13 11-17 3-7 4-44 3-16 10-26 5-12 1-8 6-7 19-41 8-16 5-6 9 1 4 3 2 9h9l8 6 2 5v7l17-8 4-1h19l11 4 6 4 5 5 6 8 4 9 2 13-2 13-6 12-7 8-6 4h-2l4 5 5 4 1 4-5 9-16 21-14 19-10 13-33 44-4 7 1 5v4l-5 2-7 15-1 3 18 1 409 1 6 5 1 2v8l-6 12-13 22-16 28-10 17-15 26-14 24-15 26-10 17-14 24-30 52-28 48-30 52-7 9-6 5-5 2-47 1h-8l6 24 1 2 59 1 5 4 1 2v8l-5 6-78 1h-218l-8-1-4-5-1-7 3-6 3-2 115-1-4-20-1-6h-242l1 2 1 13 1 4v18l-4 10-4 4h-428l-8-7-6-12-2-7v-7l7-24 1-9-14-26-8-19-1-8 1-5-7-24-17-64-21-83-22-91-7-31-2-12v-31l4-21 6-18 8-17 9-14 9-12 9-10 12-13 10-9 19-14 19-12 24-13 17-8 21-10 21-6 16-3 12-2 3-7 3-13h-13l-23-1-13-2-11-4-9-6-7-7-7-14-4-16v-25l4-17 5-13 9-14 8-10 21-21 6-8 1-3-9-3-25-10-21-6-49-7-16-5-11-6-9-9-6-11-3-12v-12l2-12 5-12 8-11 10-7 10-6 5-5 2-7v-26l5-10 8-6 8-3 12-1 22 4 5-1 4-3h2l2-5 10-14 9-6zm21 216-9 11-7 8-19 19-7 10-8 16-5 18-1 10v11l2 14 5 12 4 6 7 7 9 5 11 3 9 1 35 1 3-8 3-12v-7l-29-12-12-8-9-10-5-12v-18l5-15 8-16 10-19 4-12-1-3zm210 63-10 25-9 15-11 14-14 14-15 11-15 8-15 5-16 3-2 2-5 21v7l17 6 7-1 15-5 16-8 12-8 10-9 7-7 10-14 6-10 8-20 4-17 1-8v-24zm-86 23-2 1 2 5 4 4 6 1 7-3-1-4-9-3zm442 104-9 13-10 17-5 12-1 4v14l4 8 9 10 5 4 9 9 4-1 14-12 10-9 11-9 8-7 3-5h-12l-11-3-10-6-8-9-5-10-2-7-1-11-1-2z" fill="#FCE4C9"/>
<path transform="translate(959,845)" d="m0 0 431 1 6 5 1 2v8l-6 12-13 22-16 28-10 17-15 26-14 24-15 26-10 17-14 24-30 52-28 48-30 52-7 9-6 5-5 2-47 1h-8l6 24 1 2 59 1 5 4 1 2v8l-5 6-78 1h-218l-8-1-4-5-1-7 3-6 3-2 115-1-4-20-1-6h-266l-45-1-5-3-2-3 1-7 13-25 13-23 13-24 13-23 8-14 6-11 13-24 14-24 24-44 4-8-24 1-13 1-14-4v-2l-7-1-12-5-25-9-12-6-3-5v-5l5-6h6l15 6 6 1v2l9 2 7 2v2l8 1 8 4 24 9 14 5 10 3 6-9 14-26 13-23 16-29 10-18 12-21 7-9 5-4 6-2 8-1z" fill="#7079B6"/>
<path transform="translate(1107,578)" d="m0 0h465l7 3 1 2 1 17v187l-3 5-4 2h-470l-4-4-1-2v-203l3-5zm37 38v2h35v-1l-25-1zm222 0v2h175l1-2zm-218 34 1 3h32v-2zm259 0 1 3h110l1-3zm-263 35v2l20 1h21l14-1-1-2zm144 0v2l146 1 12-1v-2zm-147 33v3l11 1h57l26-1-1-2-50-1zm249 0v3l10 1h69l2-3-1-1zm-53 0-44 1-7 1v1h62v-3zm-195 35 1 2 6 1 154-1v-2zm329-1-127 1v2l3 1h193l1-3-1-1z" fill="#96B8F0"/>
<path transform="translate(393,240)" d="m0 0h10l9 2 10 7 6 10 10 22 7 8 8 3 15 3 7 4 6 10 2 8v11l-3 14-5 14-1 2 18-6 9-2 9-1h23l19 3 14 4 14 6 12 8 10 9 7 7 8 13 5 13 4 22 7 87v17l-3 21-5 17-7 15-6 11-9 12-11 12-10 9-13 8-17 8-8 3-5-1-6-2 3-3 15-5 16-8 12-8 10-9 10-11 9-14 7-14 6-18 3-18v-22l-8 21-9 16-13 16-14 14-15 11-15 8-15 5-10 2h-5l1-9 3-6 2-1 14-1 11-4 12-7 10-9 9-11 9-16 6-14 8-30 4-16v-8l-16-3-1-4 2-1h7l6 2v2l4-1 1-2h2l2-11 2-7v-4l-15-3-16 1-16 2h-22l-10-2-19-1-12 2-9 4-9 6-9 12-7 9-8 8-11 8-10 5-9 3 1 7 7 11 7 6 6 4-1 10-8 32-2 4-10-3-21-9-11-8-9-10-5-12v-18l5-15 8-16 10-19 4-12v-2l-4 1-10 13-23 23-7 10-8 16-5 18-1 10v11l2 14 5 12 4 6 9 8 8 4 9 2 9 1 30 1 4 1-1 6h-36l-13-2-11-4-9-6-7-7-7-14-4-16v-25l4-17 5-13 9-14 8-10 21-21 6-8 1-3-9-3-25-10-21-6-49-7-16-5-11-6-9-9-6-11-3-12v-12l2-12 5-12 8-11 10-7 10-6 5-5 2-7v-26l5-10 8-6 8-3 12-1 22 4 5-1 4-3h2l2-5 10-14 9-6z" fill="#020847"/>
<path transform="translate(424,883)" d="m0 0 4 4 8 32 14 62 3 12 10 44 7 28v2l9-2 41-9 18-3 30-7 9-3 22-5h7l5 3 3 4v2l14-3 28-9 6-2 9-19 10-19 11-17 4-6 1-4 20 8 25 9 8 3v2l11 2 6 1 10-1h24l-1 5-9 16-12 22-13 23-14 25-10 17-6 12-13 23-14 26-12 21-14 26-3 6 1 7 5 3 45 1 24 1 1 2 1 13 1 4v18l-4 10-4 4h-428l-8-7-6-12-2-7v-7l7-24 1-9-14-26-8-19-1-8 5 2 8 16 10 19 6 12 8 10v2h2l2 5h2l7 8 5 6v2h2l5 6 14 8 9 3 6 1h13l17-4 30-10 19-7 13-5 18-8 14-5 25-10 19-8 17-6 45-18 24-10 9-5 2-3-1-11-5-17-10-29-6-17-3-8-4-10-4-13-6-10-2-1-11 1-13 2-5 2-18 3-38 8h-3v2l-21 5-30 6-2-3-3-14-9-38-10-45-10-43-7-31-2-8z" fill="#FDCEA6"/>
<path transform="translate(735,167)" d="m0 0h29l17 4 16 7 12 8 12 11 8 9 8 13 7 16 3 12 1 8v20l-3 16-4 12-7 14-9 12-8 9-10 8-14 8-15 6-13 3-12 1v23l-4-1v-21l-22-3-15-5-14-7-11-8-12-11-11-15-8-17-5-20v-27l4-17 6-15 9-14 11-13 14-11 12-7 18-6z" fill="#F54F78"/>
<path transform="translate(520,449)" d="m0 0 19 1 10 2h22l25-3h7l15 3 1 5-5 18h-2l-1 3h-4v-2l-13-1h-2l1 3 16 3 1 1v8l-11 43-6 15-8 15-10 13-9 9-13 8-10 4-3 1-14 1-2 1-5 15-2 7-4 15-1 7 11 3 18 6 2 1v11l-3 10-4 8-8 8-12 6-13 3h-26l-17-4-15-6-19-10-20-13-19-12-8-5 4-4 21-6 16-3 12-2 3-7 3-13h-13v-1h13l2-7 5-19 1-9 6-21 4-17v-6l-9-6-7-8-5-10 1-5 14-5 11-7 13-12 9-12 7-9 10-7 12-4zm18 93-2 1 2 5 4 4 6 1 7-3-1-4-9-3z" fill="#F89283"/>
<path transform="translate(984,1073)" d="m0 0h75l15 1 7 7 7 16 5 17 18 72 11 33 2 7 1 8 4 16 1 2 59 1 5 4 1 2v8l-5 6-78 1h-218l-8-1-4-5-1-7 3-6 3-2 115-1-4-20-1-6h-3l-1-13-3-12-7-29-11-45-6-33-1-8v-11l5-1z" fill="#5A6499"/>
<path transform="translate(923,208)" d="m0 0h410l9 3 8 7 5 10v3h268l9 2 8 5 5 5 6 9 2 6v524h-4l-1-519-2-9-5-8-7-6-7-3-6-1-265-1-3 10-7 9-8 5-6 1h-408l-10-4-8-9-3-7v-11l4-10 7-7z" fill="#020848"/>
<path transform="translate(962,587)" d="m0 0 9 1 4 3 2 9h9l8 6 2 5v7l17-8 4-1h19l11 4 6 4 5 5 6 8 4 9 2 13-2 13-6 12-7 8-6 4h-2l4 5 5 4 1 4-5 9-16 21-14 19-10 13-33 44-4 7 1 5v4l-5 2-7 15-2 4-3 1h-20l2-3-9-6-33-18-10-6-11-7-1-4 7-10 10-16 6-10 1-3 4-44 3-16 10-26 5-12 1-8 6-7 19-41 8-16zm18 59-9 13-10 17-5 12-1 4v14l4 8 9 10 5 4 9 9 4-1 14-12 10-9 11-9 8-7 3-5h-12l-11-3-10-6-8-9-5-10-2-7-1-11-1-2z" fill="#FA9483"/>
<path transform="translate(696,968)" d="m0 0 29 11 17 6 8 3v2l11 2 6 1 10-1h24l-1 5-9 16-12 22-13 23-14 25-10 17-6 12-11 19-10 3-26 8-12 4-18 9-3-1-5-18-9-24-17-45-7-17v-3l29-9 15-5 9-19 10-19 11-17 4-6z" fill="#FA9383"/>
<path transform="translate(723,1130)" d="m0 0 1 3-15 28-12 21-14 26-3 6 1 7 5 3 45 1 24 1 1 2 1 16-43 1-146 1h-91l-12-1-2-1 1-4 24-9 29-12 31-12 33-13 49-19 16-8 5-5 3-5 25-13 32-10z" fill="#FCE4CA"/>
<path transform="translate(1336,334)" d="m0 0h202l6 2 5 5 3 6 1 5v194l-3 8-4 4-3 1h-7l-6-4-199-199-5-8v-6l4-6zm0 4-5 3-1 7 3 5 3 1 8-7 6-7-1-2zm23 0-4 2-5 5-9 10-2 1v3l8 7 3 3h3v-2l4-2 24-24 1-3zm31 0-8 7-17 17-3 2v2l-3 1-4 4 1 4 9 9 3 1 34-34 8-7 3-4v-2zm32 0-5 3-35 35-8 7-4 5 6 7 5 5 4-1 18-18 7-6v-2l4-2 30-30 1-3zm31 0-11 9-45 45-2 1v2l-3 1-5 5-1 4 10 10 3 1 31-31 3-2v-2l4-2v-2l4-2v-2l4-2 22-22 2-1v-2l4-2 3-4v-2zm31 0-11 9-72 72 7 8 6 5 5-5 6-5 7-8 15-14 58-58 1-4zm31 0-4 2-12 12-5 6-8 7-67 67-2 1 1 4 10 10h3l4-5 7-6 7-8 8-7v-2l4-2 66-66 6-5 4-6v-2zm26 4-46 46-2 1v2l-4 2v2l-4 2-50 50-3 2 2 4 9 9 3 1 48-48 8-7 46-46 1-8-2-9-3-3zm6 27-8 7-14 14-8 7-40 40-2 1v2l-4 2-23 23 2 4 9 9 4-1 2-4 4-2 34-34 6-5 5-6 8-7 26-26 1-6v-17zm0 30-12 11-61 61-5 4-5 5 1 4 10 10 4-2 32-32 2-1v-2l4-2 31-31 1-6v-18zm-1 32-8 8-8 7-51 51 6 7 7 6 51-51 5-4 1-16v-8zm1 30-8 7-44 44 2 4 9 9 4-2 38-38 1-14v-9zm0 30-8 7v2l-4 2v2h-2l-7 8-13 12-3 5 6 7 5 4 3 1 16-16 8-7 1-26zm-1 33-11 11-8 7v4l7 7 4 2 5-1 4-4 1-2v-24z" fill="#111856"/>
<path transform="translate(1128,1250)" d="m0 0 2 2 59 1 5 4 1 2v8l-5 6-78 1h-218l-8-1-4-5-1-7 3-6 3-2 115-1 5-1 40 1h80z" fill="#7079B6"/>
<path transform="translate(1017,609)" d="m0 0h19l11 4 6 4 5 5 6 8 4 9 2 13-2 13-6 12-7 8-6 4h-2l1 3-16 3h-12l-11-3-10-6-7-7-6-10-3-10-1-11-1-4 11-18 4-8 17-8z" fill="#E7EAF9"/>
<path transform="translate(944,282)" d="m0 0h638l11 2 11 6 7 6 6 10 3 8v284h-4l-1-12v-263l-1-11-5-10-8-8-10-5-10-2h-638l-9 2-10 6-8 9-4 9-1 6v238l-1 49-4-1v-48l-6-1v-3l6-1v-93h-20l-1-4h21v-139l4-11 6-8 8-8 10-5z" fill="#0E1453"/>
<path transform="translate(1358,231)" d="m0 0h265l9 2 8 5 5 5 6 9 2 6v524h-4l-1-519-2-9-5-8-7-6-7-3-6-1-264-1z" fill="#151C5A"/>
<path transform="translate(696,951)" d="m0 0h6l15 6 6 1v2l9 2 7 2v2l8 1 8 4 24 9 14 5 7 2 1 3-1 1-36 3-14-4v-2l-7-1-12-5-25-9-12-6-3-5v-5z" fill="#020848"/>
<path transform="translate(785,566)" d="m0 0h4v10l-1 13h42l1 1v91l-1 1-9 1h-82l-2-1v-92l1-1h46v-15zm-43 27-1 37v30l1 18 6 1h76l2-1 1-84-1-1z" fill="#19205D"/>
<path transform="translate(424,883)" d="m0 0 4 4 8 32 14 62 3 12 10 44 7 28v2l9-2 41-9 18-3 30-7h4v2l-36 8-15 3h-3v2l-21 5-30 6-2-3-3-14-9-38-10-45-10-43-7-31-2-8z" fill="#FDCEA5"/>
<path transform="translate(1350,648)" d="m0 0h6l2 2v3l-2 1-36 1h-26l-104-1-9-1v-2h-30v-1l39-1z" fill="#E7EBFA"/>
<path transform="translate(1205,615)" d="m0 0h120l1 4-2 1h-121l-41-1v-1l-5-1v-1z" fill="#E7EBFA"/>
<path transform="translate(834,839)" d="m0 0 1 4-2 6-2 2-3 7-4 5-3 6-5 7-3 6-7 11-14 21-9 13-5 7-4 7h-4l-1-1 1-7 10-14 11-17 38-57z" fill="#FDD0A8"/>
<path transform="translate(1217,519)" d="m0 0h48l7 2-1 2-50 1-107 1-2-1 1-4z" fill="#161D5C"/>
<path transform="translate(1232,485)" d="m0 0h59l-1 5-123 1h-11l-2-1v-4z" fill="#161D5B"/>
<path transform="translate(315,1213)" d="m0 0 7 6 11 13 7 7 1 6-2 1-27-1-5-1 2-10 4-14z" fill="#FDE5CA"/>
<path transform="translate(1096,384)" d="m0 0h69v4l-12 1h-123v-4z" fill="#28306B"/>
<path transform="translate(907,461)" d="m0 0 3 4 1 92-1 49-4-1v-48l-6-1v-3l6-1v-90z" fill="#060C4B"/>
<path transform="translate(1072,452)" d="m0 0h88v4l-40 1h-89l-1-4z" fill="#262E6A"/>
<path transform="translate(785,566)" d="m0 0h4v10l-1 13h23l8 1-2 3-76 1v8h-1l-1 61-2 1v-74l1-1h46v-15z" fill="#0E1553"/>
<path transform="translate(1169,349)" d="m0 0h122l1 2-1 2-52 1h-70l-1-4z" fill="#1C2360"/>
<path transform="translate(1212,417)" d="m0 0h15l1 4-1 1-37 1h-79l-1-4 2-1h32z" fill="#1C2360"/>
<path transform="translate(1141,349)" d="m0 0 2 1v4l-10 1h-103v-4l82-1z" fill="#1B225F"/>
<path transform="translate(966,517)" d="m0 0h28l3 3v8l-2 3h-30l-3-4 1-8z" fill="#050B4B"/>
<path transform="translate(964,460)" d="m0 0h30l2 2v10l-2 2h-30l-2-2v-9z" fill="#030A49"/>
<path transform="translate(963,403)" d="m0 0h30l2 2v10l-2 2h-30l-2-3v-8z" fill="#030949"/>
<path transform="translate(963,346)" d="m0 0h28l3 2v10l-2 2h-30l-2-3v-8z" fill="#030949"/>
<path transform="translate(673,854)" d="m0 0 4 4 7 22 3 21v9l-3 16-6 13-8 13-3 3h-4l2-5 7-9 6-12 3-11 1-14-2-15-3-13-6-19z" fill="#FECFA6"/>
<path transform="translate(722,981)" d="m0 0 12 1 13 5 3 1v2l6 1 4 2v2l-21 2-7 1-3-2h-13l1-6 4-6z" fill="#F8DBC1"/>
<path transform="translate(1103,486)" d="m0 0h26l1 4-6 1h-94v-4z" fill="#121857"/>
<path transform="translate(740,593)" d="m0 0h2v88l79 1v1h-82l-2-1v-18l1-1 1-66z" fill="#38407B"/>
<path transform="translate(1198,383)" d="m0 0h77l1 4-55 1h-23l-2-1v-3z" fill="#212866"/>
<path transform="translate(378,648)" d="m0 0 2 1 10 7 16 10 17 11 16 9 10 5 18 6 10 2h26l16-4 7-4 2 1-8 5-14 4-9 1h-12l-17-2-16-5-11-5-14-7-10-7-7-4-33-22z" fill="#FDCEA5"/>
<path transform="translate(1259,717)" d="m0 0h35l2 2-15 3h-43l-4-2 2-2z" fill="#E7EBFA"/>
<path transform="translate(1232,451)" d="m0 0h10l2 1-1 4h-58l-1-3 1-1z" fill="#19205E"/>
<path transform="translate(1030,419)" d="m0 0h59l-1 4h-57z" fill="#222A65"/>
<path transform="translate(1032,521)" d="m0 0h56v4l-53 1-4-1z" fill="#1C2360"/>
<path transform="translate(1154,486)" d="m0 0h72l-2 2h-27l-7 1v1l-17 1h-17l-2-1z" fill="#060C4C"/>
<path transform="translate(1214,683)" d="m0 0h19l12 1 1 3-3 1h-58v-1l13-1 1-2z" fill="#E7EBFA"/>
<path transform="translate(1197,487)" d="m0 0h29l53 2v1h-89l-6-1v-1z" fill="#5A6499"/>
<path transform="translate(740,593)" d="m0 0h2v37h-2v47h-1v-80z" fill="#5F689F"/>
<path transform="translate(1171,420)" d="m0 0 5 1v-1h6v1l8 1v1h-79v-1l6-1z" fill="#5B659B"/>
<path transform="translate(1111,418)" d="m0 0h30l30 1v2l-61 1z" fill="#030949"/>
<path transform="translate(526,691)" d="m0 0 2 1-8 5-14 4-9 1h-12l-17-2-16-5-2-1v-2l5 1 12 4 10 2h26l16-4z" fill="#FECFA6"/>
<path transform="translate(1172,351)" d="m0 0 61 1 6 1v1h-68z" fill="#5D679E"/>
<path transform="translate(466,756)" d="m0 0 5 2 12 10 1 3-3 2-8-5v-2l-4-2-4-4z" fill="#FECFA6"/>
<path transform="translate(594,474)" d="m0 0h7l6 2v2l4-1 2-2-2 12h-1l-1-5-16-3-1-4z" fill="#49528B"/>
<path transform="translate(520,449)" d="m0 0 19 1 10 2v1h-36l-14 3 1-2 12-4z" fill="#BE5684"/>
<path transform="translate(568,1046)" d="m0 0h4v2l-45 10h-6l3-2z" fill="#FB9483"/>
<path transform="translate(440,733)" d="m0 0 4 2 7 5v2l4 2 1 3-3 1-7-4-8-8z" fill="#FECFA6"/>
<path transform="translate(785,566)" d="m0 0h4v10l-1 13h-4v-15z" fill="#303873"/>
<path transform="translate(788,589)" d="m0 0h23l8 1-2 3h-23v-1l-6-1z" fill="#010847"/>
<path transform="translate(493,780)" d="m0 0 5 1 10 9 2 1-1 3-5-1-10-8z" fill="#FECFA6"/>
<path transform="translate(1617,680)" d="m0 0 4 1 1 1v15l-2 2-3-2z" fill="#303874"/>
<path transform="translate(813,455)" d="m0 0h20l1 4h-21z" fill="#1D2461"/>
<path transform="translate(776,455)" d="m0 0h21v4h-20z" fill="#161D5A"/>
<path transform="translate(750,402)" d="m0 0h3v21h-4v-20z" fill="#1A215E"/>
<path transform="translate(1617,717)" d="m0 0 5 1v12l-1 5-4-1z" fill="#1B225F"/>
<path transform="translate(849,455)" d="m0 0h20l2 3-1 1h-21z" fill="#1D2461"/>
<path transform="translate(863,553)" d="m0 0h21l1 3-2 1h-16l-4-1z" fill="#151C5B"/>
<path transform="translate(826,553)" d="m0 0h22v3l-11 1h-10z" fill="#111857"/>
<path transform="translate(1617,644)" d="m0 0h4l1 7v10l-4 1-1-1z" fill="#232A67"/>
<path transform="translate(750,438)" d="m0 0 3 3 4 9 5 6-3 1-5-3-4-8-1-7z" fill="#131957"/>
<path transform="translate(1616,789)" d="m0 0h3l-1 7-5 9-4 2 1-6z" fill="#101755"/>
<path transform="translate(925,618)" d="m0 0 3 1v18h-4v-18z" fill="#171E5B"/>
<path transform="translate(1592,817)" d="m0 0h5l-2 4-4 2-12 1v-4z" fill="#171E5C"/>
<path transform="translate(750,368)" d="m0 0 3 1v18l-4-1v-17z" fill="#151B59"/>
<path transform="translate(1617,753)" d="m0 0 4 1 1 2-1 15h-4z" fill="#030949"/>
<path transform="translate(1618,607)" d="m0 0h3v18l-2 1-2-1v-17z" fill="#0C1251"/>
<path transform="translate(791,553)" d="m0 0h20l1 3h-23v-2z" fill="#1B235F"/>
<path transform="translate(413,712)" d="m0 0 6 1 7 6 1 4-2 1-8-6-3-2z" fill="#FECFA6"/>
<path transform="translate(996,821)" d="m0 0h18v3h-19z" fill="#2F3771"/>
<path transform="translate(1197,487)" d="m0 0 18 1v2h-25l-6-1v-1z" fill="#3A437C"/>
<path transform="translate(1471,821)" d="m0 0h16l2 1v2h-20v-2z" fill="#232A68"/>
<path transform="translate(593,494)" d="m0 0 5 1-1 8-3 3-2-1v-8z" fill="#010747"/>
<path transform="translate(533,481)" d="m0 0 4 1-1 9-3 2-2-1v-7z" fill="#010747"/>
<path transform="translate(1507,821)" d="m0 0h16l2 1v2h-19l-1-2z" fill="#1F2763"/>
<path transform="translate(1543,821)" d="m0 0h17l1 3h-19z" fill="#050C4B"/>
<path transform="translate(1154,486)" d="m0 0h19v1l-11 1 5 2v1h-11l-2-1z" fill="#3F4781"/>
<path transform="translate(1281,485)" d="m0 0h10l-1 5h-10l-3-3z" fill="#2B336E"/>
<path transform="translate(1435,821)" d="m0 0h15l2 1v2h-19v-2z" fill="#141A5A"/>
<path transform="translate(1034,821)" d="m0 0 18 1-1 2h-20v-2z" fill="#1D2562"/>
<path transform="translate(1395,822)" d="m0 0h21v2h-20z" fill="#0A104F"/>
<path transform="translate(1359,822)" d="m0 0h20v2h-20z" fill="#070D4D"/>
<path transform="translate(1323,822)" d="m0 0h20v2h-20z" fill="#0C1251"/>
<path transform="translate(1287,822)" d="m0 0h20v2h-20z" fill="#09104F"/>
<path transform="translate(1105,822)" d="m0 0h20v2h-20z" fill="#09104F"/>
<path transform="translate(1251,822)" d="m0 0h19v2h-20z" fill="#131A57"/>
<path transform="translate(1214,822)" d="m0 0h20l-1 2h-19z" fill="#101755"/>
<path transform="translate(1178,822)" d="m0 0h20l-1 2h-19z" fill="#0F1554"/>
<path transform="translate(1142,822)" d="m0 0h19v2h-20z" fill="#0A104F"/>
<path transform="translate(1068,822)" d="m0 0h20l-1 2h-19z" fill="#1F2663"/>
<path transform="translate(512,450)" d="m0 0h7l-2 2-18 4 1-2z" fill="#A05A89"/>
<path transform="translate(355,660)" d="m0 0 5 2v2h2l1 3-3 1-5-4-1-3z" fill="#FECFA6"/>
<path transform="translate(990,630)" d="m0 0 1 2-8 15-2-1 2-5z" fill="#FDDFC1"/>
<path transform="translate(601,515)" d="m0 0h2l-2 11-2 7h-1l1-12z" fill="#AD5988"/>
<path transform="translate(1617,753)" d="m0 0 4 1 1 2-2 4v-2h-2v9h-1z" fill="#434C84"/>
<path transform="translate(560,724)" d="m0 0h4l-1 6-2 3h-2z" fill="#FECFA6"/>
<path transform="translate(1619,717)" d="m0 0 3 1v12l-1-2-2-1z" fill="#616BA3"/>
<path transform="translate(456,534)" d="m0 0h2l1 6-3 11-2 2 2-12z" fill="#C35683"/>
<path transform="translate(1281,683)" d="m0 0 8 1-1 3-6 1z" fill="#E7EBFA"/>
<path transform="translate(1087,419)" d="m0 0h2v3h-20v-2z" fill="#030A49"/>
<path transform="translate(438,505)" d="m0 0 4 1-4 2 1 7 1 4-3-3-2-5 1-5z" fill="#A15C8C"/>
<path transform="translate(740,363)" d="m0 0h13v6h-4v-4l-9-1z" fill="#ED7880"/>
<path transform="translate(532,461)" d="m0 0h7l7 3 1 2-4-1-10-2z" fill="#010747"/>
<path transform="translate(612,475)" d="m0 0 1 3-2 9h-1l-1-5-4-2h4v-2z" fill="#5E689E"/>
</svg>
